<svg xmlns="http://www.w3.org/2000/svg" xmlns:xlink="http://www.w3.org/1999/xlink" width="559" zoomAndPan="magnify" viewBox="0 0 419.25 179.999999" height="240" preserveAspectRatio="xMidYMid meet" version="1.0"><defs><clipPath id="520f2b4e61"><path d="M 209.398438 25 L 400.84375 25 L 400.84375 124 L 209.398438 124 Z M 209.398438 25 " clip-rule="nonzero"/></clipPath><clipPath id="bc04186a78"><path d="M 18 25 L 209.382812 25 L 209.382812 124 L 18 124 Z M 18 25 " clip-rule="nonzero"/></clipPath></defs><g clip-path="url(#520f2b4e61)"><path fill="#b60000" d="M 209.398438 112.773438 C 209.398438 112.773438 209.398438 112.773438 209.402344 112.765625 L 209.402344 112.761719 C 209.585938 112.527344 220.34375 101.832031 230.464844 103.289062 C 234.390625 103.855469 238.175781 105.15625 241.652344 107.066406 L 266.039062 120.449219 C 275.867188 125.34375 287.503906 124.933594 296.96875 119.375 C 298.003906 118.769531 297.910156 117.246094 296.8125 116.769531 L 246.09375 94.699219 C 246.085938 94.691406 246.085938 94.691406 246.085938 94.683594 C 246.085938 94.679688 246.085938 94.671875 246.09375 94.671875 C 248.425781 93.683594 297.003906 105.554688 298.414062 105.898438 C 298.4375 105.90625 298.457031 105.910156 298.480469 105.914062 C 300.421875 106.316406 302.378906 106.519531 304.304688 106.519531 C 312.554688 106.519531 320.464844 102.917969 325.890625 96.574219 C 326.625 95.714844 326.179688 94.382812 325.070312 94.167969 L 251.925781 79.910156 C 251.890625 79.902344 251.863281 79.890625 251.851562 79.863281 C 251.828125 79.84375 251.824219 79.816406 251.824219 79.789062 C 251.824219 79.738281 251.851562 79.691406 251.910156 79.679688 C 258.957031 78.1875 326.089844 81.484375 327.9375 81.574219 C 327.964844 81.578125 327.992188 81.578125 328.019531 81.578125 C 339.355469 81.566406 350.089844 76.734375 357.238281 68.414062 L 359.367188 65.941406 C 360.183594 64.988281 359.503906 63.515625 358.25 63.523438 L 253.585938 63.984375 C 253.539062 63.984375 253.511719 63.964844 253.484375 63.945312 C 253.460938 63.917969 253.449219 63.882812 253.449219 63.855469 C 253.449219 63.789062 253.488281 63.726562 253.570312 63.71875 L 356.070312 52.253906 C 367.945312 50.621094 379.097656 45.578125 388.164062 37.730469 L 399.691406 27.753906 C 400.8125 26.78125 399.941406 24.949219 398.480469 25.207031 L 254.496094 50.503906 C 252.800781 50.800781 242.835938 52.777344 241.289062 53.523438 C 236.757812 55.71875 229.535156 61.101562 226.097656 71.410156 C 221.4375 85.394531 209.730469 112.113281 209.402344 112.761719 L 209.398438 112.773438 " fill-opacity="1" fill-rule="nonzero"/></g><g clip-path="url(#bc04186a78)"><path fill="#b60000" d="M 209.382812 112.773438 C 209.382812 112.773438 209.382812 112.773438 209.375 112.765625 L 209.375 112.761719 C 209.195312 112.527344 198.4375 101.832031 188.3125 103.289062 C 184.390625 103.855469 180.601562 105.15625 177.128906 107.066406 L 152.738281 120.449219 C 142.914062 125.34375 131.277344 124.933594 121.808594 119.375 C 120.777344 118.769531 120.867188 117.246094 121.964844 116.769531 L 172.6875 94.699219 C 172.695312 94.691406 172.695312 94.691406 172.695312 94.683594 C 172.695312 94.679688 172.695312 94.671875 172.6875 94.671875 C 170.351562 93.683594 121.777344 105.554688 120.363281 105.898438 C 120.339844 105.90625 120.320312 105.910156 120.296875 105.914062 C 118.355469 106.316406 116.402344 106.519531 114.472656 106.519531 C 106.226562 106.519531 98.316406 102.917969 92.886719 96.574219 C 92.152344 95.714844 92.597656 94.382812 93.707031 94.167969 L 166.855469 79.910156 C 166.886719 79.902344 166.914062 79.890625 166.929688 79.863281 C 166.949219 79.84375 166.957031 79.816406 166.957031 79.789062 C 166.957031 79.738281 166.929688 79.691406 166.867188 79.679688 C 159.820312 78.1875 92.6875 81.484375 90.84375 81.574219 C 90.8125 81.578125 90.789062 81.578125 90.761719 81.578125 C 79.425781 81.566406 68.691406 76.734375 61.539062 68.414062 L 59.410156 65.941406 C 58.59375 64.988281 59.273438 63.515625 60.527344 63.523438 L 165.195312 63.984375 C 165.242188 63.984375 165.269531 63.964844 165.296875 63.945312 C 165.316406 63.917969 165.332031 63.882812 165.332031 63.855469 C 165.332031 63.789062 165.289062 63.726562 165.207031 63.71875 L 62.710938 52.253906 C 50.835938 50.621094 39.679688 45.578125 30.617188 37.730469 L 19.089844 27.753906 C 17.964844 26.78125 18.835938 24.949219 20.300781 25.207031 L 164.285156 50.503906 C 165.976562 50.800781 175.945312 52.777344 177.492188 53.523438 C 182.023438 55.71875 189.246094 61.101562 192.679688 71.410156 C 197.34375 85.394531 209.046875 112.113281 209.375 112.761719 L 209.382812 112.773438 " fill-opacity="1" fill-rule="nonzero"/></g><path stroke-linecap="round" transform="matrix(1.063596, 0, 0, 1.063596, 66.949984, 127.747877)" fill="none" stroke-linejoin="miter" d="M 0.99825 1.000965 L 42.936597 1.000965 " stroke="#b60000" stroke-width="2" stroke-opacity="1" stroke-miterlimit="4"/><path stroke-linecap="round" transform="matrix(1.063596, 0, 0, 1.063596, 307.406423, 127.747877)" fill="none" stroke-linejoin="miter" d="M 0.998807 1.000965 L 42.937154 1.000965 " stroke="#b60000" stroke-width="2" stroke-opacity="1" stroke-miterlimit="4"/><path stroke-linecap="round" transform="matrix(1.063596, -0.000000000000000132, 0.000000000000000132, 1.063596, 17.967856, 152.93484)" fill="none" stroke-linejoin="miter" d="M 0.999809 1.001471 L 358.965036 1.001471 " stroke="#b60000" stroke-width="2" stroke-opacity="1" stroke-miterlimit="4"/></svg>