<svg width="140" height="140" viewBox="0 0 140 140" fill="none" xmlns="http://www.w3.org/2000/svg">
<path d="M140 108.116C134.908 109.411 131.757 108.173 128.931 103.929L108.832 76.1218L105.927 72.2718L82.4556 104.021C79.7738 107.841 76.9606 109.503 71.9556 108.151L102.012 67.805L74.0294 31.3612C78.8419 30.425 82.1669 30.9018 85.12 35.2112L105.967 63.3643L126.967 35.3643C129.658 31.545 132.549 30.0925 137.379 31.5012L126.529 45.8862L111.829 65.0268C110.079 67.2143 110.32 68.7106 111.93 70.8237L140 108.116ZM0.035 67.1312L2.49375 55.0387C9.1875 31.1075 36.6188 21.1631 55.5363 35.9506C66.5919 44.6481 69.3394 56.9506 68.7925 70.7318H6.475C5.53875 95.5381 23.3931 110.509 46.1562 102.871C54.1406 100.189 58.8438 93.9368 61.1975 86.1143C62.3919 82.1943 64.3694 81.5818 68.0531 82.7018C66.1719 92.4843 61.9281 100.657 52.9594 105.771C39.5587 113.427 20.4312 110.951 10.3687 100.311C4.375 94.1381 1.89875 86.3156 0.7875 77.9506C0.6125 76.5681 0.2625 75.2512 0 73.9256C0.0233333 71.6622 0.035 69.3989 0.035 67.1356V67.1312ZM6.58875 65.4687H62.9038C62.5363 47.5312 51.3669 34.7912 36.1025 34.6818C19.3463 34.5506 7.315 46.9887 6.58875 65.4687Z" fill="black"/>
</svg>
