<svg width="140" height="140" viewBox="0 0 140 140" fill="none" xmlns="http://www.w3.org/2000/svg">
<g clip-path="url(#clip0_931_1950)">
<path d="M140 0H0V140H140V0Z" fill="#F7DF1E"/>
<path d="M94.0445 109.376C96.8645 113.98 100.533 117.365 107.022 117.365C112.473 117.365 115.956 114.64 115.956 110.876C115.956 106.365 112.378 104.767 106.378 102.142L103.089 100.731C93.5956 96.6868 87.289 91.6201 87.289 80.909C87.289 71.0424 94.8067 63.5312 106.556 63.5312C114.92 63.5312 120.933 66.4424 125.267 74.0646L115.022 80.6424C112.767 76.5979 110.333 75.0046 106.556 75.0046C102.702 75.0046 100.26 77.449 100.26 80.6424C100.26 84.589 102.705 86.1868 108.349 88.6312L111.638 90.0401C122.816 94.8335 129.127 99.7201 129.127 110.707C129.127 122.551 119.822 129.04 107.327 129.04C95.109 129.04 87.2156 123.218 83.3534 115.587L94.0445 109.376ZM47.5712 110.516C49.6379 114.182 51.5179 117.282 56.0379 117.282C60.3601 117.282 63.0868 115.591 63.0868 109.016V64.2824H76.2423V109.193C76.2423 122.816 68.2556 129.016 56.5979 129.016C46.0645 129.016 39.9645 123.565 36.8623 116.999L47.5712 110.516Z" fill="black"/>
</g>
<defs>
<clipPath id="clip0_931_1950">
<rect width="140" height="140" fill="white"/>
</clipPath>
</defs>
</svg>
