<svg width="140" height="140" viewBox="0 0 140 140" fill="none" xmlns="http://www.w3.org/2000/svg">
<g clip-path="url(#clip0_931_2042)">
<path fill-rule="evenodd" clip-rule="evenodd" d="M82.4336 0C81.4213 0 80.4812 0.216939 79.6135 0.506173C81.4574 1.73545 82.4698 3.36244 82.9759 5.20635C83.0122 5.45944 83.0844 5.64022 83.1206 5.89329C83.1569 6.11023 83.1929 6.32716 83.1929 6.5441C83.3376 9.72575 82.3613 10.1235 81.6744 12.0035C80.6258 14.4259 80.9151 17.0291 82.1805 19.1261C82.289 19.3792 82.4336 19.6684 82.6144 19.9215C81.2405 10.7743 88.8692 9.40036 90.2793 6.5441C90.3877 4.04939 88.3269 2.38624 86.6999 1.22928C85.1453 0.289243 83.7352 0 82.4336 0ZM93.931 2.06085C93.7863 2.89242 93.8948 2.67548 93.8587 3.10935C93.8225 3.39859 93.8225 3.76015 93.7865 4.04938C93.7142 4.33863 93.6418 4.62786 93.5334 4.91712C93.4611 5.20635 93.3526 5.4956 93.2441 5.78483C93.0994 6.07409 92.991 6.32716 92.8464 6.6164C92.738 6.76108 92.6656 6.90564 92.5572 7.05027C92.4849 7.15874 92.4125 7.2672 92.3403 7.37567C92.1595 7.62876 91.9787 7.88184 91.7979 8.09877C91.581 8.31571 91.4002 8.56878 91.1471 8.74957V8.78577C90.9302 8.96655 90.7133 9.18348 90.4602 9.36425C89.7009 9.94273 88.8332 10.3766 88.0378 10.9189C87.7847 11.0997 87.5316 11.2443 87.3147 11.4613C87.0616 11.642 86.8447 11.8228 86.6277 12.0397C86.3746 12.2567 86.1939 12.4736 85.9769 12.7267C85.7962 12.9436 85.5792 13.1967 85.4346 13.4498C85.2538 13.7029 85.0731 13.956 84.9284 14.2091C84.7838 14.4983 84.6753 14.7514 84.5307 15.0406C84.4223 15.3299 84.3138 15.5829 84.2415 15.8722C84.133 16.1976 84.0607 16.4868 83.9884 16.7761C83.9522 16.9208 83.9522 17.1015 83.9161 17.2461C83.8799 17.3908 83.8799 17.5353 83.8439 17.68C83.8439 17.9692 83.8077 18.2946 83.8077 18.5838C83.8077 18.8008 83.8077 19.0177 83.8439 19.2346C83.8439 19.5239 83.8801 19.8131 83.9523 20.1385C83.9885 20.4277 84.0608 20.717 84.1331 21.0062C84.2416 21.2955 84.3139 21.5847 84.4224 21.8739C84.4946 22.0547 84.6031 22.2355 84.6755 22.3801L76.3598 19.1623C74.9497 18.7646 73.5758 18.4031 72.1658 18.0777C71.4065 17.8969 70.6472 17.7161 69.888 17.5353C67.7187 17.1015 65.5132 16.7761 63.3077 16.5592C63.2355 16.5592 63.1993 16.5229 63.127 16.5229C60.9576 16.306 58.8245 16.1976 56.6552 16.1976C55.0643 16.1976 53.4735 16.2698 51.9188 16.3783C49.7134 16.523 47.5079 16.8122 45.3024 17.1737C44.7601 17.246 44.2178 17.3545 43.6754 17.463C42.5546 17.6799 41.47 17.933 40.4215 18.1861C39.8791 18.3308 39.3368 18.4753 38.7945 18.6199C38.2522 18.8369 37.746 19.09 37.2398 19.3069C36.8421 19.4877 36.4444 19.6684 36.0467 19.8492C35.9744 19.8854 35.902 19.8854 35.8659 19.9215C35.5044 20.1023 35.179 20.2469 34.8536 20.4277C34.7451 20.4639 34.6728 20.4999 34.6005 20.5361C34.2028 20.7169 33.8051 20.9338 33.4797 21.1146C33.2266 21.2231 32.9735 21.3677 32.7566 21.4762C32.6481 21.5484 32.5035 21.6208 32.4312 21.6569C32.1058 21.8377 31.7804 22.0185 31.4911 22.1993C31.1657 22.38 30.8765 22.5608 30.6234 22.7416C30.3703 22.9224 30.1172 23.067 29.9003 23.2477C29.8641 23.284 29.828 23.284 29.7918 23.32C29.5749 23.4647 29.3218 23.6454 29.1049 23.8262C29.1049 23.8262 29.0687 23.8624 29.0326 23.8984C28.8519 24.0431 28.6711 24.1877 28.4903 24.3323C28.4181 24.3685 28.3456 24.4408 28.2734 24.477C28.0926 24.6217 27.9118 24.8024 27.7311 24.947C27.6948 25.0193 27.6226 25.0555 27.5864 25.0917C27.3694 25.3086 27.1525 25.4894 26.9356 25.7063C26.8994 25.7063 26.8994 25.7425 26.8633 25.7786C26.6464 25.9593 26.4295 26.1763 26.2125 26.3932C26.1763 26.4294 26.1763 26.4655 26.1403 26.4655C25.9595 26.6462 25.7787 26.827 25.5979 27.0439C25.5257 27.1162 25.4172 27.1886 25.3449 27.2609C25.1641 27.4778 24.9472 27.6947 24.7302 27.9117C24.694 27.9839 24.6218 28.0201 24.5855 28.0924C24.2963 28.3817 24.0432 28.6709 23.754 28.9602C23.7178 28.9964 23.6817 29.0324 23.6455 29.0686C23.067 29.6833 22.4524 30.2979 21.8016 30.8402C21.1508 31.4187 20.4639 31.9611 19.7769 32.4311C19.0538 32.9373 18.3668 33.3711 17.6076 33.805C16.8845 34.2027 16.1252 34.5642 15.3298 34.8896C14.5705 35.215 13.7751 35.5043 12.9797 35.7573C11.4612 36.0827 9.90652 36.6974 8.56878 36.8058C8.27954 36.8058 7.95414 36.8781 7.6649 36.9143C7.33951 36.9866 7.05027 37.059 6.76103 37.1312C6.47179 37.2397 6.18254 37.3482 5.8933 37.4566C5.60406 37.5651 5.31482 37.7097 5.02558 37.8544C4.77249 38.0351 4.48325 38.1797 4.23016 38.3605C3.97708 38.5413 3.72398 38.7582 3.50705 38.9752C3.25397 39.1559 3.00088 39.409 2.78395 39.6259C2.56701 39.8791 2.35008 40.096 2.16931 40.3491C1.98854 40.6383 1.77161 40.8914 1.62698 41.1806C1.44621 41.4337 1.26543 41.723 1.12081 42.0122C0.976128 42.3376 0.831568 42.6268 0.723101 42.9522C0.614635 43.2415 0.506169 43.5669 0.397703 43.8923C0.325449 44.1815 0.253024 44.4707 0.216931 44.76C0.216931 44.7962 0.18072 44.8322 0.18072 44.8685C0.108466 45.1939 0.108466 45.6277 0.0722533 45.8447C0.0360424 46.0978 0 46.3147 0 46.5678C0 46.7124 1.12554e-07 46.8932 0.036211 47.0378C0.0724218 47.2909 0.108464 47.5078 0.180889 47.7248C0.253143 47.9417 0.325568 48.1586 0.433966 48.3755V48.4117C0.542433 48.6287 0.68706 48.8456 0.831671 49.0625C0.97635 49.2795 1.12093 49.4964 1.3017 49.7133C1.48247 49.8941 1.6994 50.111 1.91633 50.2918C2.13327 50.5087 2.3502 50.6895 2.60328 50.8703C3.47101 51.6296 3.68794 51.8826 4.80875 52.4611C4.98952 52.5696 5.17031 52.6419 5.38725 52.7504C5.42346 52.7504 5.4595 52.7866 5.49571 52.7866C5.49571 52.8588 5.49571 52.895 5.53193 52.9674C5.56814 53.2566 5.64039 53.5458 5.7127 53.8351C5.78495 54.1605 5.89349 54.4497 6.00195 54.7028C6.11042 54.9197 6.18273 55.1367 6.29119 55.3536C6.3274 55.4259 6.36345 55.4983 6.39966 55.5344C6.54434 55.8236 6.6889 56.0767 6.83351 56.3298C7.0143 56.5829 7.19507 56.836 7.37584 57.0891C7.55661 57.306 7.77355 57.5591 7.99048 57.776C8.20741 57.9929 8.42434 58.1737 8.67744 58.3906C8.67744 58.3906 8.71366 58.4269 8.74969 58.4269C8.96663 58.6077 9.18356 58.7885 9.40049 58.9331C9.65357 59.1138 9.90666 59.2584 10.1959 59.4031C10.449 59.5478 10.7382 59.6923 11.0275 59.8008C11.2444 59.9093 11.4975 59.9816 11.7506 60.0539C11.7868 60.0901 11.8228 60.0901 11.8953 60.1261C12.0399 60.1624 12.2206 60.1984 12.3653 60.2346C12.2568 62.187 12.2206 64.0309 12.5099 64.6817C12.8353 65.4048 14.4262 63.1993 16.017 60.6685C15.8001 63.1632 15.6554 66.0917 16.017 66.9595C16.4147 67.8633 18.584 65.0432 20.4641 61.9339C46.0981 56.0045 69.4906 73.7205 71.9491 98.7399C71.4791 94.8351 66.6704 92.6658 64.465 93.2082C63.3803 95.8836 61.5364 99.3184 58.5717 101.452C58.8248 99.0653 58.7164 96.6067 58.2101 94.2205C57.4147 97.5468 55.86 100.656 53.7269 103.332C50.2921 103.585 46.8574 101.922 45.0496 99.4268C44.9049 99.3184 44.8688 99.1014 44.7604 98.9568C44.6519 98.7037 44.5434 98.4507 44.4711 98.1976C44.3627 97.9445 44.2904 97.6914 44.2542 97.4383C44.218 97.1852 44.218 96.9321 44.218 96.6429C44.218 96.4621 44.218 96.2813 44.218 96.1006C44.2542 95.8475 44.3265 95.5944 44.3988 95.3413C44.471 95.0882 44.5434 94.8351 44.6519 94.582C44.7965 94.329 44.9049 94.0759 45.0857 93.8228C45.7004 92.0873 45.7004 90.6773 44.5795 89.8457C44.3626 89.701 44.1457 89.5926 43.8926 89.4842C43.7479 89.448 43.5672 89.3757 43.4226 89.3395C43.3141 89.3033 43.2418 89.2672 43.1333 89.231C42.8802 89.1588 42.6272 89.0863 42.3741 89.0502C42.121 88.978 41.8679 88.9418 41.6148 88.9418C41.3617 88.9055 41.0725 88.8695 40.8194 88.8695C40.6386 88.8695 40.4578 88.9057 40.2771 88.9057C39.9878 88.9057 39.7347 88.942 39.4817 89.0142C39.2286 89.0504 38.9755 89.0864 38.7224 89.1588C38.4693 89.2311 38.2162 89.3035 37.9631 89.412C37.7101 89.5204 37.4931 89.6289 37.24 89.7374C37.0231 89.8458 36.8062 89.9904 36.5531 90.0989C28.1289 95.5945 33.1545 108.466 38.9032 112.19C36.7339 112.587 34.5284 113.057 33.9138 113.527C33.8775 113.564 33.8415 113.6 33.8415 113.6C35.3962 114.54 37.0232 115.335 38.7224 116.022C41.0364 116.781 43.4949 117.468 44.5796 117.758V117.794C47.5805 118.408 50.6175 118.625 53.6907 118.445C69.7075 117.324 82.8318 105.139 85.2181 89.0865C85.2903 89.4119 85.3628 89.7012 85.435 90.0266C85.5435 90.6774 85.6881 91.3643 85.7604 92.0513V92.0875C85.8326 92.4129 85.8689 92.7383 85.9051 93.0275V93.1722C85.9413 93.4976 85.9773 93.823 85.9773 94.1123C86.0135 94.51 86.0496 94.9077 86.0496 95.3054V95.8839C86.0496 96.0647 86.0858 96.2816 86.0858 96.4624C86.0858 96.6793 86.0496 96.8962 86.0496 97.1132V97.6193C86.0496 97.8724 86.0133 98.0893 86.0133 98.3424C86.0133 98.4871 86.0133 98.6317 85.9771 98.8124C85.9771 99.0655 85.9409 99.3186 85.9409 99.6079C85.9047 99.7163 85.9047 99.8248 85.9047 99.9333C85.8685 100.223 85.8324 100.476 85.7962 100.765C85.7962 100.873 85.7962 100.982 85.76 101.09C85.7237 101.452 85.6515 101.777 85.6153 102.139V102.175V102.211C85.5431 102.537 85.4706 102.898 85.3984 103.224V103.332C85.3261 103.657 85.2537 103.983 85.1815 104.308C85.1815 104.344 85.1453 104.417 85.1453 104.453C85.073 104.778 85.0006 105.104 84.8922 105.429V105.538C84.7837 105.899 84.6753 106.224 84.6029 106.55C84.5667 106.586 84.5667 106.622 84.5667 106.622C84.4583 106.984 84.3498 107.345 84.2413 107.707C84.0967 108.068 83.9883 108.394 83.8437 108.755C83.699 109.117 83.5906 109.478 83.4459 109.804C83.3013 110.165 83.1567 110.491 83.0121 110.852H82.9758C82.8311 111.178 82.6866 111.539 82.5058 111.865C82.4696 111.973 82.4335 112.045 82.3973 112.118C82.3611 112.154 82.3611 112.19 82.3251 112.226C79.975 116.962 76.5041 121.12 72.1655 124.374C71.8762 124.555 71.587 124.772 71.2977 124.989C71.2255 125.061 71.117 125.097 71.0446 125.17C70.7915 125.351 70.5385 125.531 70.2492 125.712L70.3577 125.929H70.3939C70.9001 125.857 71.4062 125.784 71.9124 125.712H71.9486C72.8887 125.567 73.8287 125.387 74.7687 125.206C75.0218 125.17 75.3111 125.097 75.5641 125.025C75.7449 124.989 75.8895 124.953 76.0703 124.917C76.3234 124.88 76.5765 124.808 76.8296 124.772C77.0465 124.7 77.2635 124.663 77.4804 124.591C81.0959 123.723 84.603 122.53 87.9654 121.12C82.2167 128.966 74.5156 135.293 65.513 139.451C69.6709 139.162 73.8287 138.475 77.8419 137.318C92.4125 133.015 104.669 123.217 112.009 110.021C110.526 118.372 107.2 126.327 102.283 133.268C105.79 130.954 109.008 128.279 111.936 125.242C120.035 116.782 125.35 106.044 127.158 94.51C128.387 100.223 128.748 106.116 128.206 111.937C154.31 75.5286 130.375 37.7825 120.36 27.8398C120.324 27.7676 120.288 27.7314 120.288 27.6591C120.252 27.6953 120.252 27.6953 120.252 27.7313C120.252 27.6951 120.252 27.6951 120.216 27.6591C120.216 28.0929 120.18 28.5268 120.143 28.9606C120.035 29.7922 119.927 30.5876 119.782 31.383C119.601 32.1785 119.384 32.9739 119.167 33.7693C118.914 34.5285 118.625 35.3239 118.3 36.0832C117.974 36.8063 117.613 37.5656 117.215 38.2887C116.817 38.9756 116.383 39.6987 115.913 40.3495C115.443 41.0365 114.937 41.6873 114.431 42.3019C113.889 42.9527 113.31 43.5312 112.732 44.1097C112.37 44.4351 112.045 44.7243 111.683 45.0135C111.394 45.2666 111.141 45.4836 110.852 45.7366C110.201 46.2428 109.55 46.7128 108.827 47.1467C108.14 47.5806 107.417 48.0144 106.694 48.376C105.934 48.7375 105.175 49.0629 104.416 49.3883C103.657 49.6776 102.861 49.9307 102.066 50.1476C101.27 50.3645 100.439 50.5453 99.6435 50.6899C98.8119 50.8346 97.9803 50.9068 97.1849 50.9792C96.6064 51.0154 96.028 51.0514 95.4495 51.0514C94.6179 51.0514 93.7863 50.9792 92.9909 50.9068C92.1594 50.8345 91.3278 50.726 90.5324 50.5452C89.7008 50.4005 88.9054 50.1836 88.11 49.9306H88.0738C88.8692 49.8583 89.6646 49.7859 90.46 49.6413C91.2916 49.4966 92.087 49.3159 92.8824 49.099C93.6778 48.882 94.4732 48.6289 95.2325 48.3397C96.0279 48.0505 96.7872 47.6889 97.5103 47.3274C98.2695 46.9658 98.9565 46.5681 99.6796 46.1342C100.367 45.6642 101.053 45.1942 101.704 44.688C102.355 44.1819 102.97 43.6395 103.548 43.0611C104.163 42.5187 104.705 41.9041 105.247 41.2894C105.79 40.6387 106.296 39.9879 106.766 39.3371C106.838 39.2286 106.911 39.084 106.983 38.9755C107.344 38.397 107.706 37.8186 108.031 37.2401C108.429 36.517 108.791 35.7938 109.116 35.0346C109.441 34.2753 109.731 33.5161 109.984 32.7207C110.237 31.9614 110.418 31.166 110.598 30.3706C110.743 29.539 110.888 28.7436 110.96 27.9482C111.032 27.1166 111.105 26.285 111.105 25.4896C111.105 24.9111 111.068 24.3327 111.032 23.7542C110.96 22.9226 110.852 22.1272 110.743 21.3318C110.599 20.5002 110.418 19.7048 110.201 18.9094C109.948 18.1501 109.695 17.3547 109.405 16.5955C109.116 15.8362 108.755 15.0769 108.393 14.3538C107.995 13.6307 107.598 12.9076 107.164 12.2207C106.694 11.5337 106.224 10.8829 105.718 10.2321C105.175 9.61749 104.633 9.00285 104.054 8.38821C103.765 8.09898 103.44 7.77357 103.114 7.48434C101.487 6.2189 99.7882 5.02577 98.0889 3.94112C97.8358 3.79645 97.6189 3.68803 97.3658 3.57956C96.1726 2.82031 95.0518 2.42239 93.931 2.06085Z" fill="#E0234E"/>
</g>
<defs>
<clipPath id="clip0_931_2042">
<rect width="140" height="140" fill="white"/>
</clipPath>
</defs>
</svg>
