<svg width="140" height="140" viewBox="0 0 140 140" fill="none" xmlns="http://www.w3.org/2000/svg">
<g clip-path="url(#clip0_931_1956)">
<path d="M126.328 0H13.6719C6.12111 0 0 6.12111 0 13.6719V126.328C0 133.879 6.12111 140 13.6719 140H126.328C133.879 140 140 133.879 140 126.328V13.6719C140 6.12111 133.879 0 126.328 0Z" fill="#3178C6"/>
<path d="M126.328 0H13.6719C6.12111 0 0 6.12111 0 13.6719V126.328C0 133.879 6.12111 140 13.6719 140H126.328C133.879 140 140 133.879 140 126.328V13.6719C140 6.12111 133.879 0 126.328 0Z" fill="#3178C6"/>
<path fill-rule="evenodd" clip-rule="evenodd" d="M86.663 111.405V125.094C88.8882 126.234 91.5201 127.09 94.5585 127.66C97.597 128.23 100.799 128.516 104.166 128.516C107.447 128.516 110.563 128.202 113.516 127.574C116.469 126.947 119.058 125.913 121.283 124.473C123.509 123.033 125.27 121.151 126.568 118.827C127.866 116.502 128.516 113.629 128.516 110.207C128.516 107.726 128.145 105.552 127.403 103.684C126.661 101.816 125.591 100.155 124.193 98.7006C122.796 97.2461 121.119 95.9413 119.165 94.7863C117.211 93.6313 115.007 92.5405 112.553 91.5141C110.756 90.7725 109.144 90.0525 107.718 89.3539C106.291 88.655 105.079 87.9422 104.08 87.2151C103.082 86.4877 102.311 85.7177 101.769 84.9051C101.227 84.0922 100.956 83.1726 100.956 82.1458C100.956 81.2049 101.199 80.3564 101.684 79.6007C102.169 78.8449 102.854 78.1963 103.738 77.6543C104.622 77.1127 105.706 76.6918 106.99 76.3924C108.274 76.093 109.7 75.9434 111.27 75.9434C112.411 75.9434 113.616 76.029 114.886 76.1999C116.155 76.3711 117.432 76.635 118.716 76.9912C120 77.3478 121.248 77.7971 122.46 78.3388C123.673 78.8807 124.793 79.508 125.82 80.2211V67.4308C123.737 66.6323 121.462 66.0406 118.994 65.6556C116.526 65.2706 113.694 65.0781 110.499 65.0781C107.247 65.0781 104.166 65.4276 101.256 66.1262C98.3459 66.8248 95.7854 67.9156 93.5741 69.3984C91.3631 70.8816 89.6159 72.7707 88.3321 75.0665C87.0483 77.362 86.4062 80.1068 86.4062 83.3008C86.4062 87.3789 87.5831 90.8581 89.9369 93.7385C92.2903 96.6186 95.8636 99.0568 100.657 101.053C102.54 101.823 104.294 102.579 105.92 103.32C107.547 104.062 108.952 104.832 110.135 105.63C111.319 106.429 112.254 107.299 112.939 108.24C113.623 109.181 113.966 110.25 113.966 111.448C113.966 112.332 113.752 113.152 113.324 113.907C112.896 114.663 112.247 115.319 111.377 115.875C110.506 116.431 109.422 116.866 108.124 117.18C106.826 117.494 105.307 117.65 103.567 117.65C100.6 117.65 97.6612 117.13 94.751 116.089C91.8411 115.048 89.145 113.487 86.663 111.405ZM63.6508 77.6787H81.2109V66.4453H32.2656V77.6787H49.7399V127.695H63.6508V77.6787Z" fill="white"/>
</g>
<defs>
<clipPath id="clip0_931_1956">
<rect width="140" height="140" fill="white"/>
</clipPath>
</defs>
</svg>
