<svg width="140" height="140" viewBox="0 0 140 140" fill="none" xmlns="http://www.w3.org/2000/svg">
<g clip-path="url(#clip0_870_235)">
<path d="M39.4535 58.8669C39.4535 60.5593 39.6398 61.9314 39.9657 62.9376C40.3382 63.9439 40.8038 65.0416 41.4557 66.2308C41.6885 66.5967 41.7817 66.9626 41.7817 67.2827C41.7817 67.7401 41.5023 68.1975 40.897 68.6549L37.9635 70.5759C37.5445 70.8503 37.1254 70.9875 36.7529 70.9875C36.2873 70.9875 35.8217 70.7588 35.356 70.3472C34.7042 69.6611 34.1454 68.9293 33.6798 68.1975C33.2142 67.42 32.7485 66.5509 32.2363 65.499C28.6045 69.7069 24.0413 71.8108 18.547 71.8108C14.6357 71.8108 11.516 70.7131 9.23445 68.5177C6.95288 66.3222 5.78882 63.395 5.78882 59.736C5.78882 55.8482 7.18569 52.6923 10.026 50.3139C12.8663 47.9356 16.6379 46.7464 21.4338 46.7464C23.017 46.7464 24.6466 46.8836 26.3695 47.1123C28.0923 47.341 29.8617 47.7069 31.7242 48.1185V44.7796C31.7242 41.3035 30.9791 38.8794 29.5357 37.4615C28.0457 36.0437 25.5313 35.3576 21.946 35.3576C20.3163 35.3576 18.6401 35.5405 16.9173 35.9522C15.1945 36.3638 13.5182 36.8669 11.8885 37.5073C11.1435 37.8274 10.5848 38.0104 10.2588 38.1019C9.93288 38.1933 9.70007 38.2391 9.51382 38.2391C8.86195 38.2391 8.53601 37.7817 8.53601 36.8212V34.58C8.53601 33.8482 8.62913 33.2994 8.86195 32.9792C9.09476 32.659 9.51382 32.3389 10.1657 32.0187C11.7954 31.1954 13.751 30.5094 16.0326 29.9605C18.3141 29.3659 20.7354 29.0915 23.2963 29.0915C28.8373 29.0915 32.8882 30.3264 35.4957 32.7963C38.0567 35.2661 39.3604 39.0166 39.3604 44.0478V58.8669H39.4535ZM20.5491 65.8191C22.0857 65.8191 23.6688 65.5447 25.3451 64.9958C27.0213 64.447 28.5113 63.4408 29.7685 62.0686C30.5135 61.1996 31.0723 60.2391 31.3517 59.1414C31.631 58.0437 31.8173 56.7173 31.8173 55.1622V53.2412C30.467 52.921 29.0235 52.6466 27.5335 52.4636C26.0435 52.2807 24.6001 52.1892 23.1566 52.1892C20.037 52.1892 17.7554 52.7838 16.2188 54.0187C14.6823 55.2536 13.9373 56.9917 13.9373 59.2786C13.9373 61.4283 14.496 63.0291 15.6601 64.1268C16.7776 65.2703 18.4073 65.8191 20.5491 65.8191ZM57.9389 70.7588C57.1007 70.7588 56.542 70.6216 56.1695 70.3015C55.797 70.027 55.471 69.3867 55.1917 68.5177L44.2495 33.1622C43.9701 32.2474 43.8304 31.6528 43.8304 31.3326C43.8304 30.6008 44.2029 30.1892 44.9479 30.1892H49.511C50.3957 30.1892 51.001 30.3264 51.327 30.6466C51.6995 30.921 51.9789 31.5613 52.2582 32.4304L60.0807 62.7089L67.3445 32.4304C67.5773 31.5156 67.8567 30.921 68.2292 30.6466C68.6017 30.3721 69.2535 30.1892 70.0917 30.1892H73.8167C74.7014 30.1892 75.3067 30.3264 75.6792 30.6466C76.0517 30.921 76.3776 31.5613 76.5639 32.4304L83.9207 63.0748L91.9761 32.4304C92.2554 31.5156 92.5814 30.921 92.9073 30.6466C93.2798 30.3721 93.8851 30.1892 94.7233 30.1892H99.0536C99.7986 30.1892 100.218 30.5551 100.218 31.3326C100.218 31.5613 100.171 31.79 100.125 32.0644C100.078 32.3389 99.9848 32.7048 99.7986 33.2079L88.577 68.5634C88.2976 69.4782 87.9717 70.0728 87.5992 70.3472C87.2267 70.6216 86.6214 70.8046 85.8298 70.8046H81.8254C80.9407 70.8046 80.3354 70.6674 79.9629 70.3472C79.5904 70.027 79.2645 69.4324 79.0782 68.5177L71.8611 39.0166L64.6904 68.4719C64.4576 69.3867 64.1782 69.9813 63.8057 70.3015C63.4332 70.6216 62.7814 70.7588 61.9432 70.7588H57.9389ZM117.772 71.9938C115.35 71.9938 112.929 71.7193 110.601 71.1705C108.273 70.6216 106.457 70.027 105.246 69.341C104.501 68.9293 103.989 68.4719 103.803 68.0603C103.617 67.6486 103.524 67.1913 103.524 66.7796V64.447C103.524 63.4865 103.896 63.0291 104.595 63.0291C104.874 63.0291 105.153 63.0748 105.433 63.1663C105.712 63.2578 106.131 63.4408 106.597 63.6237C108.18 64.3098 109.903 64.8586 111.719 65.2245C113.581 65.5904 115.397 65.7734 117.26 65.7734C120.193 65.7734 122.475 65.2703 124.058 64.264C125.641 63.2578 126.479 61.7942 126.479 59.9189C126.479 58.6383 126.06 57.5863 125.222 56.7173C124.384 55.8482 122.8 55.0707 120.519 54.3389L113.767 52.2807C110.368 51.2287 107.854 49.6736 106.317 47.6154C104.781 45.6029 103.989 43.3617 103.989 40.9834C103.989 39.0624 104.408 37.3701 105.246 35.9064C106.085 34.4428 107.202 33.1622 108.599 32.1559C109.996 31.104 111.579 30.3264 113.441 29.7775C115.304 29.2287 117.26 29 119.308 29C120.333 29 121.404 29.0457 122.428 29.183C123.499 29.3202 124.477 29.5031 125.455 29.6861C126.386 29.9148 127.27 30.1435 128.109 30.4179C128.947 30.6923 129.599 30.9667 130.064 31.2412C130.716 31.6071 131.182 31.973 131.461 32.3846C131.74 32.7505 131.88 33.2536 131.88 33.894V36.0437C131.88 37.0042 131.508 37.5073 130.809 37.5073C130.437 37.5073 129.831 37.3243 129.04 36.9584C126.386 35.7692 123.406 35.1746 120.1 35.1746C117.446 35.1746 115.35 35.5863 113.907 36.4553C112.464 37.3243 111.719 38.6507 111.719 40.526C111.719 41.8067 112.184 42.9044 113.115 43.7734C114.047 44.6424 115.77 45.5114 118.237 46.289L124.849 48.3472C128.202 49.3992 130.623 50.8628 132.066 52.738C133.51 54.6133 134.208 56.763 134.208 59.1414C134.208 61.1081 133.789 62.8919 132.998 64.447C132.16 66.0021 131.042 67.3742 129.599 68.4719C128.155 69.6154 126.432 70.4387 124.43 71.0333C122.335 71.6736 120.146 71.9938 117.772 71.9938Z" fill="#252F3E"/>
<path fill-rule="evenodd" clip-rule="evenodd" d="M126.572 94.2226C111.253 105.337 88.9959 111.237 69.8587 111.237C43.0387 111.237 18.8727 101.495 0.620221 85.3037C-0.823218 84.023 0.480533 82.285 2.20335 83.2912C21.9459 94.5428 46.2981 101.358 71.4884 101.358C88.4837 101.358 107.155 97.8817 124.337 90.7465C126.898 89.6031 129.086 92.3931 126.572 94.2226Z" fill="#FF9900"/>
<path fill-rule="evenodd" clip-rule="evenodd" d="M132.951 87.0876C130.995 84.6177 120.007 85.8984 115.024 86.493C113.534 86.6759 113.302 85.3953 114.652 84.4348C123.406 78.3973 137.793 80.1354 139.47 82.1478C141.146 84.2061 139.004 98.3391 130.809 105.108C129.552 106.16 128.341 105.611 128.9 104.239C130.763 99.7113 134.907 89.5117 132.951 87.0876Z" fill="#FF9900"/>
</g>
<defs>
<clipPath id="clip0_870_235">
<rect width="140" height="140" fill="white"/>
</clipPath>
</defs>
</svg>
