<svg width="140" height="140" viewBox="0 0 140 140" fill="none" xmlns="http://www.w3.org/2000/svg">
<path d="M64.7675 118.647C82.7542 115.47 97.6102 112.84 97.7809 112.804L98.0911 112.738L81.1098 92.5396C71.7701 81.4304 64.1286 72.2979 64.1286 72.2453C64.1286 72.1456 81.6632 23.8591 81.7617 23.6873C81.7947 23.6299 93.7275 44.2316 110.688 73.6272C126.566 101.148 139.657 123.839 139.779 124.051L140 124.438L86.0321 124.431L32.0643 124.424L64.7675 118.647ZM0 112.487C0 112.459 8.0015 98.569 17.7811 81.6208L35.5622 50.8059L56.284 33.4161C67.681 23.8518 77.0365 16.0147 77.074 16.0004C77.1115 15.9861 76.9616 16.3634 76.7408 16.8389C76.5201 17.3144 66.3946 39.0324 54.2398 65.1011L32.1403 112.499L16.0701 112.519C7.23156 112.53 0 112.516 0 112.487Z" fill="#0089D6"/>
</svg>
