<svg width="140" height="140" viewBox="0 0 140 140" fill="none" xmlns="http://www.w3.org/2000/svg">
<path d="M120.05 0H19.6C12.6 0 7 5.6 7 12.6V127.4C7 134.4 12.6 140 19.6 140H120.05C127.05 140 132.65 134.4 132.65 127.4V12.6C132.65 5.6 127.05 0 120.05 0ZM125.65 127.4C125.65 130.55 123.2 133 120.05 133H19.6C16.45 133 14 130.55 14 127.4V12.6C14 9.45 16.45 7 19.6 7H120.05C123.2 7 125.65 9.45 125.65 12.6V127.4ZM38.5 119L54.25 105L38.5 91V119ZM95.2 62.3C92.4 59.5 87.15 56 78.4 56C68.95 56 59.15 58.45 52.15 60.9V21H38.15V81.55L47.95 77C47.95 77 64.05 69.65 78.05 69.65C85.05 69.65 86.8 73.5 86.8 77V119H100.8V77C101.15 75.95 101.15 68.25 95.2 62.3ZM76.65 43.75H90.65C96.95 36.4 100.1 29.05 101.15 21H87.15C85.75 29.05 82.25 36.4 76.65 43.75Z" fill="#430098"/>
</svg>
