<svg width="140" height="140" viewBox="0 0 140 140" fill="none" xmlns="http://www.w3.org/2000/svg">
<g clip-path="url(#clip0_1119_44)">
<path d="M19.6596 45.4463C14.8372 45.4463 11 49.2835 11 54.1059V90.1767C11 94.9991 14.8372 98.8364 19.6596 98.8364C24.482 98.8364 28.3193 94.9991 28.3193 90.1767V54.1059C28.3193 49.2835 24.482 45.4463 19.6596 45.4463ZM120.658 45.4463C115.836 45.4463 111.998 49.2835 111.998 54.1059V90.1767C111.998 94.9991 115.836 98.8364 120.658 98.8364C125.48 98.8364 129.318 94.9991 129.318 90.1767V54.1059C129.318 49.2835 125.48 45.4463 120.658 45.4463Z" fill="#A4C639"/>
<path d="M55.7302 86.6104C50.9078 86.6104 47.0706 90.4476 47.0706 95.27V131.341C47.0706 136.163 50.9078 140 55.7302 140C60.5526 140 64.3898 136.163 64.3898 131.341V95.27C64.3898 90.4476 60.5526 86.6104 55.7302 86.6104ZM84.5869 86.6104C79.7645 86.6104 75.9272 90.4476 75.9272 95.27V131.341C75.9272 136.163 79.7645 140 84.5869 140C89.4093 140 93.2465 136.163 93.2465 131.341V95.27C93.2465 90.4476 89.4093 86.6104 84.5869 86.6104Z" fill="#A4C639"/>
<path d="M46.182 6.01106e-05C45.9773 0.00215359 45.7866 0.0549677 45.5985 0.159194C44.981 0.501482 44.778 1.21106 45.1211 1.83013L51.2213 12.8503C39.4848 18.9571 31.5574 30.5626 31.5415 43.8818H108.775C108.76 30.5626 100.832 18.9571 89.0957 12.8503L95.1959 1.83013C95.539 1.21106 95.336 0.501482 94.7185 0.159194C94.5304 0.0549677 94.3397 0.00201123 94.135 6.01106e-05C93.6967 -0.00416872 93.2814 0.214793 93.0475 0.636604L86.8678 11.7761C81.8125 9.53375 76.1422 8.27513 70.1585 8.27513C64.1748 8.27513 58.5045 9.53375 53.4492 11.7761L47.2694 0.636604C47.0356 0.214793 46.6202 -0.00414359 46.182 6.01106e-05ZM31.5415 46.9319V102.908C31.5415 108.08 35.7053 112.244 40.8775 112.244H99.4395C104.612 112.244 108.775 108.08 108.775 102.908V46.9319H31.5415Z" fill="#A4C639"/>
<path d="M52.3351 23.3008C50.5719 23.3008 49.1125 24.7602 49.1125 26.5233C49.1125 28.2864 50.5719 29.7458 52.3351 29.7458C54.0982 29.7458 55.5576 28.2864 55.5576 26.5233C55.5576 24.7602 54.0982 23.3008 52.3351 23.3008ZM87.9815 23.3008C86.2184 23.3008 84.759 24.7602 84.759 26.5233C84.759 28.2864 86.2184 29.7458 87.9815 29.7458C89.7446 29.7458 91.204 28.2864 91.204 26.5233C91.204 24.7602 89.7446 23.3008 87.9815 23.3008Z" fill="white"/>
</g>
<defs>
<clipPath id="clip0_1119_44">
<rect width="140" height="140" fill="white"/>
</clipPath>
</defs>
</svg>
