<svg width="48" height="48" viewBox="0 0 48 48" fill="none" xmlns="http://www.w3.org/2000/svg">
<mask id="mask0_775_2039" style="mask-type:luminance" maskUnits="userSpaceOnUse" x="0" y="0" width="39" height="48">
<path d="M38.762 22.149L25.8413 35.0743L38.762 47.9996H23.9975L11.0722 35.0743L23.9975 22.149H38.762ZM23.9975 0L0 23.9975L7.38456 31.3821L38.762 0H23.9975Z" fill="white"/>
</mask>
<g mask="url(#mask0_775_2039)">
<path d="M11.0768 35.0743L18.4568 42.4589L38.762 22.149H23.9975L11.0768 35.0743Z" fill="#39CEFD"/>
</g>
<mask id="mask1_775_2039" style="mask-type:luminance" maskUnits="userSpaceOnUse" x="0" y="0" width="39" height="48">
<path d="M38.762 22.149L25.8413 35.0743L38.762 47.9996H23.9975L11.0722 35.0743L23.9975 22.149H38.762ZM23.9975 0L0 23.9975L7.38456 31.3821L38.762 0H23.9975Z" fill="white"/>
</mask>
<g mask="url(#mask1_775_2039)">
<path d="M23.9975 0H38.762L7.38456 31.3821L0 23.9975L23.9975 0Z" fill="#39CEFD"/>
</g>
<mask id="mask2_775_2039" style="mask-type:luminance" maskUnits="userSpaceOnUse" x="0" y="0" width="39" height="48">
<path d="M38.762 22.149L25.8413 35.0743L38.762 47.9996H23.9975L11.0722 35.0743L23.9975 22.149H38.762ZM23.9975 0L0 23.9975L7.38456 31.3821L38.762 0H23.9975Z" fill="white"/>
</mask>
<g mask="url(#mask2_775_2039)">
<path d="M18.4568 42.4589L23.9975 47.995H38.762L25.8413 35.0743L18.4568 42.4589Z" fill="#03569B"/>
</g>
<mask id="mask3_775_2039" style="mask-type:luminance" maskUnits="userSpaceOnUse" x="0" y="0" width="39" height="48">
<path d="M38.762 22.149L25.8413 35.0743L38.762 47.9996H23.9975L11.0722 35.0743L23.9975 22.149H38.762ZM23.9975 0L0 23.9975L7.38456 31.3821L38.762 0H23.9975Z" fill="white"/>
</mask>
<g mask="url(#mask3_775_2039)">
<path d="M29.4089 38.665L25.8413 35.0743L18.4568 42.4589L29.4089 38.665Z" fill="url(#paint0_linear_775_2039)"/>
</g>
<mask id="mask4_775_2039" style="mask-type:luminance" maskUnits="userSpaceOnUse" x="0" y="0" width="39" height="48">
<path d="M38.762 22.149L25.8413 35.0743L38.762 47.9996H23.9975L11.0722 35.0743L23.9975 22.149H38.762ZM23.9975 0L0 23.9975L7.38456 31.3821L38.762 0H23.9975Z" fill="white"/>
</mask>
<g mask="url(#mask4_775_2039)">
<path d="M11.076 35.0718L18.4608 27.687L25.846 35.0718L18.4608 42.4566L11.076 35.0718Z" fill="#16B9FD"/>
</g>
<path d="M38.762 22.149L25.8413 35.0743L38.762 47.9996H23.9975L11.0722 35.0743L23.9975 22.149H38.762ZM23.9975 0L0 23.9975L7.38456 31.3821L38.762 0H23.9975Z" fill="url(#paint1_radial_775_2039)"/>
<defs>
<linearGradient id="paint0_linear_775_2039" x1="20.6118" y1="43.884" x2="26.1117" y2="38.3842" gradientUnits="userSpaceOnUse">
<stop stop-color="#1A237E" stop-opacity="0.4"/>
<stop offset="1" stop-color="#1A237E" stop-opacity="0"/>
</linearGradient>
<radialGradient id="paint1_radial_775_2039" cx="0" cy="0" r="1" gradientUnits="userSpaceOnUse" gradientTransform="translate(1.08896 3.27151) scale(58.7217 58.7217)">
<stop stop-color="white" stop-opacity="0.1"/>
<stop offset="1" stop-color="white" stop-opacity="0"/>
</radialGradient>
</defs>
</svg>
