<svg width="140" height="140" viewBox="0 0 140 140" fill="none" xmlns="http://www.w3.org/2000/svg">
<path d="M69.8077 81.9957C76.4325 81.9957 81.8031 76.6252 81.8031 70.0003C81.8031 63.3754 76.4325 58.0049 69.8077 58.0049C63.1828 58.0049 57.8123 63.3754 57.8123 70.0003C57.8123 76.6252 63.1828 81.9957 69.8077 81.9957Z" fill="#61DAFB"/>
<path fill-rule="evenodd" clip-rule="evenodd" d="M11.4664 61.5046C8.38754 64.2839 6.88391 67.1573 6.88391 70.0003C6.88391 72.8434 8.38754 75.7168 11.4664 78.4961C14.545 81.2752 19.0809 83.8441 24.8086 86.0311C36.254 90.4011 52.1632 93.1343 69.8076 93.1343C87.452 93.1343 103.361 90.4011 114.807 86.0311C120.534 83.8441 125.07 81.2752 128.149 78.4961C131.228 75.7168 132.731 72.8434 132.731 70.0003C132.731 67.1573 131.228 64.2839 128.149 61.5046C125.07 58.7254 120.534 56.1565 114.807 53.9696C103.361 49.5995 87.452 46.8663 69.8076 46.8663C52.1632 46.8663 36.254 49.5995 24.8086 53.9696C19.0809 56.1565 14.545 58.7254 11.4664 61.5046ZM23.7799 51.2754C35.6302 46.7507 51.9038 43.9824 69.8076 43.9824C87.7113 43.9824 103.985 46.7507 115.835 51.2754C121.755 53.5358 126.646 56.2626 130.081 59.3639C133.517 62.4651 135.615 66.0569 135.615 70.0003C135.615 73.9437 133.517 77.5356 130.081 80.6368C126.646 83.738 121.755 86.4648 115.835 88.7253C103.985 93.2499 87.7113 96.0182 69.8076 96.0182C51.9038 96.0182 35.6302 93.2499 23.7799 88.7253C17.8597 86.4648 12.9694 83.738 9.5339 80.6368C6.09856 77.5356 4 73.9437 4 70.0003C4 66.0569 6.09856 62.4651 9.5339 59.3639C12.9694 56.2626 17.8597 53.5358 23.7799 51.2754Z" fill="#61DAFB"/>
<path fill-rule="evenodd" clip-rule="evenodd" d="M47.9945 15.2271C44.0482 13.9505 40.808 14.085 38.3458 15.5065C35.8836 16.928 34.1471 19.6669 33.2795 23.7229C32.412 27.7786 32.4552 32.9913 33.4251 39.0451C35.3632 51.1422 40.9508 66.2865 49.773 81.567C58.5952 96.8475 68.9168 109.259 78.4241 116.986C83.1819 120.852 87.6746 123.496 91.6207 124.773C95.5671 126.049 98.8073 125.915 101.269 124.493C103.732 123.072 105.468 120.333 106.336 116.277C107.203 112.221 107.16 107.009 106.19 100.955C104.252 88.8578 98.6645 73.7135 89.8423 58.433C81.0201 43.1525 70.6985 30.7413 61.1912 23.0143C56.4334 19.1475 51.9407 16.5038 47.9945 15.2271ZM63.0101 20.7764C72.8537 28.7767 83.3879 41.4859 92.3398 56.991C101.292 72.4961 107.031 87.9737 109.038 100.499C110.04 106.756 110.124 112.354 109.156 116.88C108.188 121.406 106.127 125.019 102.711 126.991C99.2963 128.963 95.1364 128.941 90.7331 127.517C86.3295 126.092 81.5229 123.22 76.6052 119.224C66.7616 111.223 56.2273 98.514 47.2755 83.0089C38.3236 67.5038 32.5842 52.0263 30.5775 39.5013C29.575 33.244 29.4914 27.6455 30.4594 23.1197C31.4274 18.594 33.4888 14.9807 36.9039 13.009C40.3189 11.0373 44.4789 11.0587 48.8822 12.4832C53.2858 13.9078 58.0924 16.7795 63.0101 20.7764Z" fill="#61DAFB"/>
<path fill-rule="evenodd" clip-rule="evenodd" d="M106.336 23.723C105.468 19.667 103.732 16.9282 101.27 15.5067C98.8074 14.0851 95.5671 13.9506 91.6208 15.2273C87.6746 16.5039 83.182 19.1476 78.4242 23.0145C68.9169 30.7415 58.5953 43.1526 49.7731 58.4331C40.9509 73.7136 35.3633 88.858 33.4252 100.955C32.4553 107.009 32.4121 112.221 33.2796 116.277C34.1471 120.333 35.8837 123.072 38.3459 124.494C40.808 125.915 44.0482 126.05 47.9946 124.773C51.9408 123.496 56.4334 120.853 61.1912 116.986C70.6985 109.259 81.0201 96.8476 89.8423 81.5671C98.6645 66.2866 104.252 51.1423 106.19 39.0452C107.16 32.9914 107.203 27.7788 106.336 23.723ZM109.038 39.5014C107.031 52.0264 101.292 67.504 92.3399 83.0091C83.388 98.5142 72.8537 111.223 63.0101 119.224C58.0924 123.221 53.2858 126.092 48.8823 127.517C44.4789 128.941 40.319 128.963 36.9039 126.991C33.4888 125.019 31.4275 121.406 30.4595 116.88C29.4914 112.355 29.5751 106.756 30.5776 100.499C32.5843 87.9738 38.3237 72.4963 47.2755 56.9912C56.2274 41.4861 66.7617 28.7768 76.6053 20.7765C81.523 16.7797 86.3296 13.908 90.7331 12.4834C95.1365 11.0589 99.2964 11.0374 102.711 13.0091C106.127 14.9808 108.188 18.5942 109.156 23.1198C110.124 27.6457 110.04 33.2442 109.038 39.5014Z" fill="#61DAFB"/>
</svg>
