<svg width="140" height="140" viewBox="0 0 140 140" fill="none" xmlns="http://www.w3.org/2000/svg">
<g clip-path="url(#clip0_870_147)">
<path d="M139.847 38.5174C139.846 35.7376 139.549 32.9657 138.961 30.2487C137.867 24.664 134.962 19.5453 130.648 15.5924C128.437 13.5253 125.887 11.8544 123.108 10.6531C120.389 9.34057 117.486 8.46557 114.489 7.98432C111.528 7.43745 108.255 7.43745 105.295 7.17932H32.1234C29.8442 7.21851 27.5698 7.4019 25.3137 7.72838C23.0672 7.97776 20.8666 8.51588 18.7512 9.33838L16.6731 10.1434C14.691 11.1358 12.799 12.2989 11.0184 13.6193C10.4409 14.1662 9.82625 14.4243 9.24656 14.9362C7.05042 16.8094 5.21233 19.0656 3.82156 21.5949C2.38437 24.1062 1.37812 26.8143 0.885938 29.6274C0.445489 32.3537 0.149762 35.1014 0 37.859L0 101.631C0.0011225 104.411 0.298108 107.183 0.885938 109.9C1.97969 115.485 4.88469 120.603 9.19844 124.556C11.3861 126.56 13.8961 128.18 16.6228 129.349C19.3419 130.662 22.2447 131.537 25.2416 132.018C28.2034 132.565 31.4759 132.565 34.4356 132.823H105.455C108.537 132.819 111.613 132.55 114.649 132.018C117.589 131.537 120.442 130.646 123.115 129.384C125.882 128.137 128.469 126.525 130.808 124.591C132.977 122.712 134.789 120.456 136.157 117.932C137.622 115.443 138.624 112.733 139.118 109.92C139.56 107.181 139.856 104.421 140.004 101.651V38.5415L139.847 38.5174Z" fill="#F05138"/>
<path d="M93.4872 104.372C81.0229 110.847 63.9013 111.503 46.7054 104.884C33.2894 99.75 21.8029 90.9059 13.7375 79.4937C17.5 82.1625 21.595 84.3762 25.9329 86.0781C43.7063 93.3953 61.5191 93.065 74.0229 86.0781C57.5182 74.1343 42.6541 60.27 29.7807 44.8087C27.5626 42.5772 25.5778 40.1255 23.8569 37.4915C37.3757 48.2912 51.7563 58.0759 66.8697 66.7603C55.8622 56.1465 45.7385 44.7322 36.5947 32.6243C51.8438 46.5434 68.6066 58.8809 86.6032 69.4312L88.5282 70.455C89.0487 69.2625 89.4986 68.0405 89.8757 66.7953C94.0319 53.1847 89.2982 37.7103 78.9119 24.9047C102.957 37.964 117.193 62.5144 111.265 83.0769C111.265 83.6237 110.959 84.175 110.762 84.724L110.954 84.9428C122.841 98.2975 119.573 112.418 118.073 109.749C111.571 98.5928 99.5291 102.027 93.4894 104.368L93.4872 104.372Z" fill="#FEFEFE"/>
</g>
<defs>
<clipPath id="clip0_870_147">
<rect width="140" height="140" fill="white"/>
</clipPath>
</defs>
</svg>
