<svg width="140" height="140" viewBox="0 0 140 140" fill="none" xmlns="http://www.w3.org/2000/svg">
<path d="M69.8077 81.9955C76.4325 81.9955 81.8031 76.6249 81.8031 70C81.8031 63.3752 76.4325 58.0046 69.8077 58.0046C63.1828 58.0046 57.8123 63.3752 57.8123 70C57.8123 76.6249 63.1828 81.9955 69.8077 81.9955Z" fill="#61DAFB"/>
<path fill-rule="evenodd" clip-rule="evenodd" d="M11.4664 61.5044C8.38754 64.2837 6.88391 67.157 6.88391 70.0001C6.88391 72.8432 8.38754 75.7165 11.4664 78.4958C14.545 81.275 19.0809 83.8439 24.8086 86.0308C36.254 90.4009 52.1632 93.1341 69.8076 93.1341C87.452 93.1341 103.361 90.4009 114.807 86.0308C120.534 83.8439 125.07 81.275 128.149 78.4958C131.228 75.7165 132.731 72.8432 132.731 70.0001C132.731 67.157 131.228 64.2837 128.149 61.5044C125.07 58.7252 120.534 56.1563 114.807 53.9694C103.361 49.5993 87.452 46.8661 69.8076 46.8661C52.1632 46.8661 36.254 49.5993 24.8086 53.9694C19.0809 56.1563 14.545 58.7252 11.4664 61.5044ZM23.7799 51.2752C35.6302 46.7505 51.9038 43.9822 69.8076 43.9822C87.7113 43.9822 103.985 46.7505 115.835 51.2752C121.755 53.5356 126.646 56.2624 130.081 59.3637C133.517 62.4648 135.615 66.0567 135.615 70.0001C135.615 73.9435 133.517 77.5354 130.081 80.6365C126.646 83.7378 121.755 86.4646 115.835 88.725C103.985 93.2497 87.7113 96.018 69.8076 96.018C51.9038 96.018 35.6302 93.2497 23.7799 88.725C17.8597 86.4646 12.9694 83.7378 9.5339 80.6365C6.09856 77.5354 4 73.9435 4 70.0001C4 66.0567 6.09856 62.4648 9.5339 59.3637C12.9694 56.2624 17.8597 53.5356 23.7799 51.2752Z" fill="#61DAFB"/>
<path fill-rule="evenodd" clip-rule="evenodd" d="M47.9945 15.2271C44.0482 13.9505 40.808 14.085 38.3458 15.5065C35.8836 16.928 34.1471 19.6669 33.2795 23.7229C32.412 27.7786 32.4552 32.9913 33.4251 39.0451C35.3632 51.1422 40.9508 66.2865 49.773 81.567C58.5952 96.8475 68.9168 109.259 78.4241 116.986C83.1819 120.852 87.6746 123.496 91.6207 124.773C95.5671 126.049 98.8073 125.915 101.269 124.493C103.732 123.072 105.468 120.333 106.336 116.277C107.203 112.221 107.16 107.009 106.19 100.955C104.252 88.8578 98.6645 73.7135 89.8423 58.433C81.0201 43.1525 70.6985 30.7413 61.1912 23.0143C56.4334 19.1475 51.9407 16.5038 47.9945 15.2271ZM63.0101 20.7764C72.8537 28.7767 83.3879 41.4859 92.3398 56.991C101.292 72.4961 107.031 87.9737 109.038 100.499C110.04 106.756 110.124 112.354 109.156 116.88C108.188 121.406 106.127 125.019 102.711 126.991C99.2963 128.963 95.1364 128.941 90.7331 127.517C86.3295 126.092 81.5229 123.22 76.6052 119.224C66.7616 111.223 56.2273 98.514 47.2755 83.0089C38.3236 67.5038 32.5842 52.0263 30.5775 39.5013C29.575 33.244 29.4914 27.6455 30.4594 23.1197C31.4274 18.594 33.4888 14.9807 36.9039 13.009C40.3189 11.0373 44.4789 11.0587 48.8822 12.4832C53.2858 13.9078 58.0924 16.7795 63.0101 20.7764Z" fill="#61DAFB"/>
<path fill-rule="evenodd" clip-rule="evenodd" d="M106.336 23.7229C105.468 19.6669 103.732 16.9281 101.27 15.5065C98.8074 14.085 95.5671 13.9505 91.6208 15.2272C87.6746 16.5038 83.182 19.1475 78.4242 23.0144C68.9169 30.7414 58.5953 43.1525 49.7731 58.433C40.9509 73.7135 35.3633 88.8578 33.4252 100.955C32.4553 107.009 32.4121 112.221 33.2796 116.277C34.1471 120.333 35.8837 123.072 38.3459 124.493C40.808 125.915 44.0482 126.05 47.9946 124.773C51.9408 123.496 56.4334 120.853 61.1912 116.986C70.6985 109.259 81.0201 96.8475 89.8423 81.567C98.6645 66.2865 104.252 51.1422 106.19 39.0451C107.16 32.9913 107.203 27.7787 106.336 23.7229ZM109.038 39.5013C107.031 52.0263 101.292 67.5039 92.3399 83.009C83.388 98.5141 72.8537 111.223 63.0101 119.224C58.0924 123.22 53.2858 126.092 48.8823 127.517C44.4789 128.941 40.319 128.963 36.9039 126.991C33.4888 125.019 31.4275 121.406 30.4595 116.88C29.4914 112.354 29.5751 106.756 30.5776 100.499C32.5843 87.9737 38.3237 72.4961 47.2755 56.991C56.2274 41.486 66.7617 28.7767 76.6053 20.7764C81.523 16.7796 86.3296 13.9079 90.7331 12.4833C95.1365 11.0588 99.2964 11.0373 102.711 13.009C106.127 14.9807 108.188 18.594 109.156 23.1197C110.124 27.6456 110.04 33.2441 109.038 39.5013Z" fill="#61DAFB"/>
</svg>
