<svg width="140" height="140" viewBox="0 0 140 140" fill="none" xmlns="http://www.w3.org/2000/svg">
<path fill-rule="evenodd" clip-rule="evenodd" d="M70 28C51.3333 28 39.6667 37.3333 35 56C42 46.6667 50.1667 43.1667 59.5 45.5C64.8252 46.83 68.6311 50.6956 72.8441 54.9707C79.7067 61.937 87.6504 70 105 70C123.667 70 135.333 60.6667 140 42C133 51.3333 124.833 54.8333 115.5 52.5C110.175 51.17 106.369 47.3044 102.156 43.0293C95.2933 36.063 87.3496 28 70 28ZM35 70C16.3333 70 4.66667 79.3333 0 98C7 88.6667 15.1667 85.1667 24.5 87.5C29.8252 88.8326 33.6311 92.6956 37.8441 96.9707C44.7067 103.937 52.6504 112 70 112C88.6667 112 100.333 102.667 105 84C98 93.3333 89.8333 96.8333 80.5 94.5C75.1748 93.17 71.3689 89.3044 67.1559 85.0293C60.2933 78.063 52.3496 70 35 70Z" fill="#38BDF8"/>
</svg>
