<svg width="140" height="140" viewBox="0 0 140 140" fill="none" xmlns="http://www.w3.org/2000/svg">
<path d="M138.637 57.5024C138.247 57.1817 134.741 54.5534 127.209 54.5534C125.261 54.5534 123.248 54.7459 121.3 55.0664C119.872 45.2579 111.625 40.514 111.301 40.2576L109.288 39.1035L107.989 40.9628C106.366 43.463 105.132 46.2837 104.418 49.1686C103.054 54.7459 103.898 60.0027 106.755 64.49C103.314 66.4134 97.73 66.8622 96.5613 66.9261H4.35881C1.95643 66.9261 0.00845427 68.8495 0.00845427 71.2214C-0.121239 79.1706 1.24218 87.1199 4.03434 94.6203C7.21581 102.826 11.9559 108.916 18.0595 112.635C24.9422 116.801 36.1752 119.173 48.8367 119.173C54.5507 119.173 60.2645 118.661 65.9136 117.635C73.7701 116.224 81.3022 113.532 88.2499 109.621C93.9436 106.363 99.0742 102.206 103.444 97.313C110.781 89.1713 115.131 80.0682 118.313 71.9907H119.611C127.598 71.9907 132.533 68.8495 135.26 66.1568C137.078 64.49 138.441 62.4388 139.415 60.131L140 58.4641L138.637 57.5024Z" fill="#0091E2"/>
<path d="M12.9302 64.2978H25.267C25.8516 64.2978 26.3711 63.8493 26.3711 63.2083V52.3101C26.3711 51.733 25.9164 51.2203 25.267 51.2203H12.9302C12.3459 51.2203 11.8264 51.6689 11.8264 52.3101V63.2083C11.8913 63.8493 12.3459 64.2981 12.9302 64.2981V64.2978ZM29.9421 64.2978H42.2791C42.8634 64.2978 43.3829 63.8493 43.3829 63.2083V52.3101C43.3829 51.733 42.9283 51.2203 42.2791 51.2203H29.9418C29.3575 51.2203 28.838 51.6689 28.838 52.3101V63.2083C28.9031 63.8493 29.3578 64.2981 29.9418 64.2981M47.2784 64.2981H59.6154C60.1998 64.2981 60.7192 63.8493 60.7192 63.2083V52.3101C60.7192 51.733 60.2646 51.2203 59.6154 51.2203H47.2784C46.6941 51.2203 46.1746 51.6689 46.1746 52.3101V63.2083C46.1746 63.8493 46.6292 64.2981 47.2784 64.2981ZM64.3553 64.2981H76.6924C77.2767 64.2981 77.7962 63.8493 77.7962 63.2083V52.3101C77.7962 51.733 77.3416 51.2203 76.6924 51.2203H64.3553C63.771 51.2203 63.2515 51.6689 63.2515 52.3101V63.2083C63.2515 63.8493 63.771 64.2981 64.3553 64.2981ZM29.9421 48.7201H42.2789C42.8632 48.7201 43.3827 48.2074 43.3827 47.6303V36.7321C43.3827 36.155 42.9281 35.6421 42.2789 35.6421H29.9418C29.3575 35.6421 28.838 36.0909 28.838 36.7321V47.6303C28.9031 48.2072 29.358 48.7201 29.9421 48.7201ZM47.2784 48.7201H59.6154C60.1998 48.7201 60.7192 48.2074 60.7192 47.6303V36.7321C60.7192 36.155 60.2646 35.6421 59.6154 35.6421H47.2784C46.6941 35.6421 46.1746 36.0909 46.1746 36.7321V47.6303C46.1746 48.2072 46.6292 48.7201 47.2784 48.7201ZM64.3553 48.7201H76.6924C77.2767 48.7201 77.7962 48.2074 77.7962 47.6303V36.7321C77.7962 36.155 77.2765 35.6421 76.6924 35.6421H64.3553C63.771 35.6421 63.2515 36.0909 63.2515 36.7321V47.6303C63.2515 48.2072 63.771 48.7201 64.3553 48.7201ZM64.3553 33.078H76.6924C77.2767 33.078 77.7962 32.6292 77.7962 31.9882V21.09C77.7962 20.5129 77.2765 20 76.6924 20H64.3553C63.771 20 63.2515 20.4488 63.2515 21.09V31.9882C63.2515 32.5651 63.771 33.078 64.3553 33.078ZM81.562 64.2981H93.899C94.4833 64.2981 95.0028 63.8493 95.0028 63.2083V52.3101C95.0028 51.733 94.5484 51.2203 93.899 51.2203H81.5622C80.9777 51.2203 80.4582 51.6689 80.4582 52.3101V63.2083C80.5233 63.8493 80.9779 64.2981 81.5622 64.2981" fill="#0091E2"/>
</svg>
