<svg width="140" height="140" viewBox="0 0 140 140" fill="none" xmlns="http://www.w3.org/2000/svg">
<path d="M127.753 32.0981C126.952 29.5365 125.031 27.4553 122.63 26.1745L73.8002 2.80048C72.5195 2.1601 71.0786 2 69.7978 2C68.5171 2 67.0762 2 65.7954 2.32019L16.9661 25.8543C14.5646 26.975 12.8036 29.0563 12.1632 31.7779L0.155991 84.4495C-0.324297 87.1712 0.316087 89.8928 1.91705 92.1341L35.6973 133.919C37.6185 135.84 40.3401 137.121 43.0618 137.281H96.8541C99.7358 137.601 102.457 136.321 104.218 133.919L137.999 92.1341C139.6 89.8928 140.24 87.1712 139.92 84.4495L127.753 32.0981Z" fill="#326DE6"/>
<path d="M120.228 82.3683C120.068 82.3683 119.908 82.3683 119.908 82.2082C119.908 82.0481 119.588 82.0481 119.268 82.0481C118.627 81.888 117.987 81.888 117.346 81.888C117.026 81.888 116.706 81.888 116.386 81.7279H116.226C114.465 81.5678 112.543 81.2476 110.782 80.7673C110.302 80.6072 109.822 80.1269 109.662 79.6466L108.381 79.3264C109.021 74.6837 108.701 69.8808 107.741 65.238C106.62 60.5952 104.699 56.1125 102.137 52.1101L103.098 51.1495V50.9894C103.098 50.5091 103.258 49.8687 103.578 49.5486C105.019 48.2678 106.46 47.3072 108.061 46.3466C108.381 46.1865 108.701 46.0264 109.021 45.8663C109.662 45.5462 110.142 45.226 110.782 44.9058C110.943 44.7457 111.103 44.7457 111.263 44.5856C111.423 44.4255 111.263 44.4255 111.263 44.2654C112.704 43.1447 113.024 41.2236 111.903 39.7827C111.423 39.1423 110.462 38.662 109.662 38.662C108.861 38.662 108.061 38.9822 107.42 39.4625L107.26 39.6226C107.1 39.7827 106.94 39.9428 106.78 39.9428C106.3 40.4231 105.819 40.9034 105.499 41.3837C105.339 41.7038 105.019 41.8639 104.859 42.024C103.738 43.3048 102.297 44.5856 100.856 45.5462C100.536 45.7062 100.216 45.8663 99.8959 45.8663C99.7358 45.8663 99.4156 45.8663 99.2555 45.7062H99.0954L97.8146 46.5067C96.5339 45.226 95.093 43.9452 93.8122 42.6644C87.8887 38.0216 80.5243 35.1399 72.9997 34.3394L72.8396 33.0587V33.2187C72.3593 32.8986 72.1993 32.4183 72.0392 31.938C72.0392 30.1769 72.0392 28.4159 72.3594 26.4947V26.3346C72.3594 26.0144 72.5194 25.6942 72.5194 25.374C72.6795 24.7337 72.6795 24.0933 72.8396 23.4529V22.4923C72.9997 20.8913 71.719 19.2904 70.118 19.1303C69.1574 18.9702 68.1968 19.4505 67.3964 20.251C66.756 20.8913 66.4358 21.6918 66.4358 22.4923V23.2928C66.4358 23.9332 66.5959 24.5736 66.756 25.2139C66.9161 25.5341 66.9161 25.8543 66.9161 26.1745V26.3346C67.2363 28.0957 67.2363 29.8567 67.2363 31.7779C67.0762 32.2582 66.9161 32.7385 66.4358 33.0587V33.3788L66.2757 34.6596C64.5146 34.8197 62.7536 35.1399 60.8324 35.4601C53.3079 37.0611 46.4238 41.0635 41.1406 46.6668L40.18 46.0264H40.0199C39.8598 46.0264 39.6997 46.1865 39.3795 46.1865C39.0594 46.1865 38.7392 46.0264 38.419 45.8663C36.9781 44.7457 35.5372 43.4649 34.4166 42.1841C34.2565 41.8639 33.9363 41.7038 33.7762 41.5437C33.2959 41.0635 32.9757 40.5832 32.4954 40.1029C32.3353 39.9428 32.1752 39.9428 32.0151 39.7827C31.855 39.6226 31.855 39.6226 31.855 39.6226C31.2146 39.1423 30.4142 38.8221 29.6137 38.8221C28.6531 38.8221 27.8526 39.1423 27.3723 39.9428C26.4118 41.3837 26.7319 43.3048 28.0127 44.4255C28.1728 44.4255 28.1728 44.5856 28.1728 44.5856C28.1728 44.5856 28.493 44.9058 28.6531 44.9058C29.1334 45.226 29.7738 45.5462 30.4142 45.8663C30.7343 46.0264 31.0545 46.1865 31.3747 46.3466C32.9757 47.3072 34.5767 48.2678 35.8574 49.5486C36.1776 49.8687 36.4978 50.5091 36.3377 50.9894V50.8293L37.2983 51.7899C37.1382 52.1101 36.9781 52.2702 36.818 52.5904C31.855 60.4351 29.7738 69.7207 31.2146 78.8462L29.9339 79.1663C29.9339 79.3264 29.7738 79.3264 29.7738 79.3264C29.6137 79.8067 29.1334 80.1269 28.6531 80.4471C26.892 80.9274 25.131 81.2476 23.2098 81.4077C22.8896 81.4077 22.5694 81.4077 22.2493 81.5678C21.6089 81.5678 20.9685 81.7279 20.3281 81.7279C20.168 81.7279 20.0079 81.888 19.6877 81.888C19.5276 81.888 19.5276 81.888 19.3675 82.0481C17.6065 82.3683 16.4858 83.9692 16.806 85.7303C17.1262 87.1712 18.567 88.1317 20.0079 87.9716C20.3281 87.9716 20.4882 87.9716 20.8084 87.8115C20.9685 87.8115 20.9685 87.8115 20.9685 87.6514C20.9685 87.4913 21.4488 87.6514 21.6089 87.6514C22.2493 87.4913 22.8896 87.1712 23.3699 87.0111C23.6901 86.851 24.0103 86.6909 24.3305 86.6909H24.4906C26.2517 86.0505 27.8526 85.5702 29.7738 85.25H29.9339C30.4142 85.25 30.8944 85.4101 31.2146 85.7303C31.3747 85.7303 31.3747 85.8904 31.3747 85.8904L32.8156 85.7303C35.217 93.0947 39.6997 99.6587 45.9435 104.462C47.3843 105.582 48.6651 106.543 50.2661 107.343L49.4656 108.464C49.4656 108.624 49.6257 108.624 49.6257 108.624C49.9459 109.104 49.9459 109.745 49.7858 110.225C49.1454 111.826 48.1848 113.427 47.2243 114.868V115.028C47.0642 115.348 46.9041 115.508 46.5839 115.828C46.2637 116.149 45.9435 116.789 45.4632 117.429C45.3031 117.589 45.3031 117.75 45.143 117.91C45.143 117.91 45.143 118.07 44.9829 118.07C44.1824 119.671 44.8228 121.592 46.2637 122.392C46.5839 122.552 47.0642 122.713 47.3843 122.713C48.6651 122.713 49.7858 121.912 50.4262 120.791C50.4262 120.791 50.4262 120.631 50.5863 120.631C50.5863 120.471 50.7464 120.311 50.9065 120.151C51.0666 119.511 51.3868 119.03 51.5469 118.39L51.867 117.429C52.3473 115.668 53.1478 114.067 53.9483 112.466C54.2685 111.986 54.7488 111.666 55.2291 111.506C55.3892 111.506 55.3892 111.506 55.3892 111.346L56.0295 110.065C60.5122 111.826 65.155 112.626 69.9579 112.626C72.8396 112.626 75.7214 112.306 78.6031 111.506C80.3642 111.186 82.1252 110.545 83.7262 110.065L84.3666 111.186C84.5267 111.186 84.5267 111.186 84.5267 111.346C85.0069 111.506 85.4872 111.826 85.8074 112.306C86.6079 113.907 87.4084 115.508 87.8887 117.269V117.429L88.2089 118.39C88.369 119.03 88.5291 119.671 88.8493 120.151C89.0094 120.311 89.0094 120.471 89.1694 120.631C89.1694 120.631 89.1694 120.791 89.3295 120.791C89.9699 121.912 91.0906 122.713 92.3714 122.713C92.8517 122.713 93.1719 122.552 93.6521 122.392C94.2925 122.072 94.9329 121.432 95.093 120.631C95.2531 119.831 95.2531 119.03 94.9329 118.23C94.9329 118.07 94.7728 118.07 94.7728 118.07C94.7728 117.91 94.6127 117.75 94.4526 117.589C94.1324 116.949 93.8122 116.469 93.3319 115.988C93.1719 115.668 93.0117 115.508 92.6916 115.188V114.868C91.5709 113.427 90.7704 111.826 90.13 110.225C89.9699 109.745 89.9699 109.104 90.2901 108.624C90.2901 108.464 90.4502 108.464 90.4502 108.464L89.9699 107.183C98.1348 102.22 104.379 94.5356 107.26 85.4101L108.541 85.5702C108.701 85.5702 108.701 85.4101 108.701 85.4101C109.021 85.0899 109.502 84.9298 109.982 84.9298H110.142C111.903 85.25 113.664 85.7303 115.265 86.3707H115.425C115.745 86.5308 116.066 86.6909 116.386 86.6909C117.026 87.0111 117.506 87.3313 118.147 87.4913C118.307 87.4913 118.467 87.6514 118.787 87.6514C118.947 87.6514 118.947 87.6514 119.107 87.8115C119.428 87.9716 119.588 87.9716 119.908 87.9716C121.349 87.9716 122.63 87.0111 123.11 85.7303C122.95 83.9692 121.669 82.6885 120.228 82.3683ZM73.9603 77.4053L69.6377 79.4865L65.3151 77.4053L64.1944 72.7625L67.2363 68.9202H72.0392L75.081 72.7625L73.9603 77.4053ZM100.056 66.999C100.856 70.3611 101.017 73.7231 100.696 77.0851L85.4872 72.7625C84.0464 72.4423 83.2459 71.0014 83.5661 69.5606C83.7262 69.0803 83.8863 68.7601 84.2065 68.4399L96.2137 57.5534C97.9747 60.4351 99.2555 63.637 100.056 66.999ZM91.4108 51.6298L78.2829 60.9154C77.1622 61.5558 75.5613 61.3957 74.7608 60.275C74.4406 59.9548 74.2805 59.6346 74.2805 59.1543L73.3199 42.9846C80.3642 43.7851 86.6079 46.8269 91.4108 51.6298ZM62.4334 43.4649L65.6353 42.8245L64.8348 58.8341C64.8348 60.275 63.5541 61.3957 62.1132 61.3957C61.6329 61.3957 61.3127 61.2356 60.8324 61.0755L47.5444 51.6298C51.7069 47.6274 56.83 44.7457 62.4334 43.4649ZM42.9017 57.5534L54.7488 68.1197C55.8694 69.0803 56.0295 70.6812 55.069 71.8019C54.7488 72.2822 54.4286 72.4423 53.7882 72.6024L38.2589 77.0851C37.7786 70.3611 39.3795 63.4769 42.9017 57.5534ZM40.18 84.6096L56.0295 81.888C57.3103 81.888 58.5911 82.6885 58.7512 83.9692C58.9113 84.4495 58.9113 85.0899 58.5911 85.5702L52.5074 100.299C46.9041 96.6168 42.4214 91.0135 40.18 84.6096ZM76.5219 104.462C74.2805 104.942 72.0392 105.262 69.6377 105.262C66.2757 105.262 62.7536 104.622 59.5517 103.661L67.3964 89.4125C68.1968 88.4519 69.4776 88.1317 70.5983 88.7721C71.0786 89.0923 71.3988 89.4125 71.8791 89.8928L79.5637 103.821C78.6031 103.981 77.6425 104.141 76.5219 104.462ZM96.0536 90.5332C93.6521 94.3755 90.2901 97.7375 86.4478 100.139L80.2041 85.0899C79.8839 83.8091 80.5243 82.5284 81.6449 82.0481C82.1252 81.888 82.6055 81.7279 83.0858 81.7279L99.0954 84.4495C98.2949 86.6909 97.3344 88.7721 96.0536 90.5332Z" fill="white"/>
</svg>
