<svg width="140" height="140" viewBox="0 0 140 140" fill="none" xmlns="http://www.w3.org/2000/svg">
<g clip-path="url(#clip0_870_93)">
<path fill-rule="evenodd" clip-rule="evenodd" d="M1.55373 55.7281C2.4944 55.3406 3.57774 55.5528 4.29931 56.2659L23.372 75.1137V58.0369C23.372 56.6562 24.5004 55.5369 25.8924 55.5369C27.2844 55.5369 28.4128 56.6562 28.4128 58.0369V81.1334C28.4128 82.1437 27.7998 83.0547 26.8591 83.4422C25.9184 83.8297 24.8351 83.6175 24.1135 82.9044L5.04085 64.0566V81.1334C5.04085 82.5141 3.91242 83.6334 2.52042 83.6334C1.12843 83.6334 0 82.5141 0 81.1334V58.0369C0 57.0266 0.613067 56.1156 1.55373 55.7281Z" fill="#009900"/>
<path d="M40.087 55.0381L39.2441 56.5903L32.7306 68.2886L31.8877 69.7651L32.7306 71.2416L39.2441 82.5613L40.1254 84.1135H41.9262H55.2597H57.1754L58.0183 82.4099L62.8843 72.718L65.0682 68.3264H60.1256L47.6734 68.3643C46.054 68.3417 44.5645 69.7927 44.5645 71.393C44.5645 72.9933 46.054 74.4443 47.6734 74.4217L55.183 74.3838L53.3439 78.0561H43.6886L38.8993 69.7272L43.7269 61.0954H53.998L56.3927 65.9508H62.5613L58.6724 56.7417L57.8295 55.0381H55.9137H41.9262H40.087Z" fill="#009900"/>
<path d="M71.1386 55.0002C69.5337 55.0201 68.0918 56.4809 68.1118 58.0668V65.9589H74.2421V58.0668C74.2625 56.4557 72.7691 54.9801 71.1386 55.0002Z" fill="#009900"/>
<path fill-rule="evenodd" clip-rule="evenodd" d="M105.304 55.7868C104.364 55.3993 103.28 55.6115 102.559 56.3245L83.4859 75.1723V58.0956C83.4859 56.7149 82.3575 55.5956 80.9655 55.5956C79.5735 55.5956 78.4451 56.7149 78.4451 58.0956V81.192C78.4451 82.2023 79.0582 83.1133 79.9988 83.5008C80.9395 83.8883 82.0228 83.6762 82.7444 82.9631L101.817 64.1153V81.192C101.817 82.5727 102.945 83.692 104.337 83.692C105.729 83.692 106.858 82.5727 106.858 81.192V58.0956C106.858 57.0853 106.245 56.1743 105.304 55.7868Z" fill="#009900"/>
<path fill-rule="evenodd" clip-rule="evenodd" d="M112.264 56.3259C113.245 55.346 114.841 55.3402 115.829 56.3129L139.228 79.3526C140.216 80.3253 140.222 81.9082 139.241 82.8881C138.26 83.868 136.664 83.8738 135.677 82.9011L112.277 59.8614C111.289 58.8887 111.283 57.3058 112.264 56.3259Z" fill="#009900"/>
<path fill-rule="evenodd" clip-rule="evenodd" d="M139.268 56.3259C138.288 55.346 136.692 55.3402 135.704 56.3129L112.305 79.3526C111.317 80.3253 111.311 81.9082 112.291 82.8881C113.272 83.868 114.868 83.8738 115.856 82.9011L139.255 59.8614C140.243 58.8887 140.249 57.3058 139.268 56.3259Z" fill="#009900"/>
<path d="M71.1386 84.1336C69.5337 84.1137 68.0918 82.6529 68.1118 81.067V68.3897H74.2421V81.067C74.2625 82.6781 72.7691 84.1537 71.1386 84.1336Z" fill="#009900"/>
</g>
<defs>
<clipPath id="clip0_870_93">
<rect width="140" height="140" fill="white"/>
</clipPath>
</defs>
</svg>
