<svg width="140" height="140" viewBox="0 0 140 140" fill="none" xmlns="http://www.w3.org/2000/svg">
<path d="M69.7343 116.935C49.7676 116.936 29.7997 116.984 9.83303 116.911C2.81324 116.885 -0.895108 112.793 0.184859 106.525C1.16906 100.811 5.11509 99.4303 10.3084 99.4395C46.5946 99.5041 82.882 99.473 119.168 99.473C123.008 99.473 126.85 99.3853 130.687 99.4949C136.554 99.6622 139.936 102.877 139.999 108.161C140.064 113.428 136.719 116.855 130.787 116.889C110.437 117.003 90.0852 116.932 69.7343 116.935Z" fill="#1FD3EF"/>
<path d="M69.7343 79.7258C49.7676 79.7269 29.7997 79.7754 9.83303 79.7015C2.81324 79.6761 -0.895108 75.5836 0.184859 69.3161C1.16906 63.6024 5.11509 62.2213 10.3084 62.2305C46.5946 62.2963 82.882 62.264 119.168 62.264C123.008 62.264 126.85 62.1763 130.687 62.2859C136.554 62.4532 139.936 65.6677 139.999 70.9522C140.064 76.2193 136.719 79.6461 130.787 79.6796C110.437 79.7938 90.0852 79.7234 69.7343 79.7258Z" fill="#5D5D5D"/>
<path d="M69.7343 40.4953C49.7676 40.4964 29.7997 40.5449 9.83303 40.4711C2.81324 40.4457 -0.895108 36.3531 0.184859 30.0856C1.16906 24.3719 5.11509 22.9908 10.3084 23C46.5946 23.0647 82.882 23.0335 119.168 23.0335C123.008 23.0335 126.85 22.947 130.687 23.0554C136.554 23.2227 139.936 26.4372 139.999 31.7217C140.064 36.9889 136.719 40.4157 130.787 40.4491C110.437 40.5634 90.0852 40.493 69.7343 40.4953Z" fill="#1FD3EF"/>
</svg>
